<svg width="129" height="103" viewBox="0 0 129 103" fill="none" xmlns="http://www.w3.org/2000/svg">
<g style="mix-blend-mode:overlay">
<path d="M47.5194 40.9525C47.2312 41.9804 46.8297 42.3567 47.1656 43.8767M47.5194 40.9525C48.0751 39.7247 49.8268 39.1967 49.8268 39.1967M47.5194 40.9525L47.1844 39.1861L44.6322 38.2998M47.5194 40.9525L48.6942 40.2309L49.093 40.7503M47.1656 43.8767C47.5051 44.5179 48.0072 45.5095 49.0723 45.9294M47.1656 43.8767L45.322 43.1886L42.7651 44.4989M47.1656 43.8767L48.1258 43.1998L48.6486 43.0876M54.5055 38.3393C53.9674 37.7138 53.4605 37.2262 52.9385 36.8572M54.5055 38.3393C54.7529 38.8676 54.9501 39.3453 55.0945 39.7943C55.3741 40.6634 55.4558 41.4251 55.3205 42.2382M54.5055 38.3393L53.679 39.7886L52.1871 39.7827M43.727 65.7636C40.4165 64.2398 38.1177 62.7575 36.207 60.8475M43.727 65.7636C49.7221 68.0651 57.1667 67.5485 61.9611 66.588M43.727 65.7636L30.0017 77.5936L30.5449 95.6321M66.0233 65.3907C70.6961 63.3625 73.0635 61.5961 76.7254 57.0481C79.1592 54.1343 80.4796 52.0309 81.7225 49.0128M66.0233 65.3907C63.2852 66.5912 64.1894 66.1416 61.9611 66.588M66.0233 65.3907L67.7784 85.7368L87.7212 94.9009M49.8268 39.1967L50.952 37.6648L49.84 35.9043M49.8268 39.1967C50.2547 39.2091 50.6193 39.2214 50.9456 39.2679M48.6486 43.0876C49.0082 43.4689 49.301 43.7302 49.7019 43.8869M48.6486 43.0876C48.6042 42.498 48.6091 42.0094 48.6889 41.5514C48.7791 41.2117 48.92 40.9491 49.093 40.7503M49.881 25.6763C50.2519 25.7225 50.6247 25.7791 50.9993 25.8461C53.1086 26.2233 54.7954 26.762 56.1902 27.4832C57.5949 28.2095 58.7034 29.1208 59.649 30.2386M49.881 25.6763C47.7142 25.4064 45.613 25.4936 43.6127 25.9616M49.881 25.6763L56.9176 16.6224L49.9697 3.52527M60.2113 30.9524C61.255 32.3724 62.1098 34.086 62.9946 36.1284C63.5701 38.3228 63.7767 40.056 63.6248 41.6112C63.5692 42.1802 63.4657 42.7254 63.3146 43.2607M60.2113 30.9524C60.03 30.7056 59.8429 30.4678 59.649 30.2386M60.2113 30.9524L72.5121 31.0017L78.1964 20.7276M52.9385 36.8572C52.3244 36.423 51.6895 36.1528 50.9586 36.0148C50.6103 35.9491 50.2401 35.9134 49.84 35.9043M52.9385 36.8572L56.8449 34.7832L59.649 30.2386M55.3205 42.2382C55.2044 42.936 54.9285 43.6717 54.4807 44.5458C54.2217 45.0531 53.6184 45.5057 52.9026 45.826M55.3205 42.2382L58.789 44.5631L63.0298 44.1179M55.3205 42.2382L54.1444 43.1096L52.946 41.8986M63.0298 44.1179C62.5012 45.5011 61.6493 46.8675 60.4832 48.4655C58.9667 49.9349 57.6925 50.7757 56.0949 51.2931M63.0298 44.1179C63.1384 43.8336 63.2334 43.5486 63.3146 43.2607M52.9026 45.826C51.9903 46.2342 50.8952 46.4275 50.097 46.245C49.7576 46.1674 49.4054 46.0607 49.0723 45.9294M52.9026 45.826L53.6403 49.4285L56.0949 51.2931M52.9026 45.826L51.401 45.0617L51.7476 43.8951M56.0949 51.2931C55.005 51.6462 53.7645 51.8487 52.194 51.9978C50.2381 51.8402 48.9106 51.5381 47.48 50.7907M56.0949 51.2931L53.5943 60.9171L61.9611 66.588M49.0723 45.9294L47.1474 48.4121L47.48 50.7907M49.0723 45.9294L48.6429 44.5225L49.7019 43.8869M47.48 50.7907C46.8015 50.4363 46.0999 49.9818 45.2971 49.3951C43.7609 47.6462 43.0325 46.4381 42.7651 44.4989M47.48 50.7907L37.8324 51.9403L36.207 60.8475M42.7651 44.4989C42.7094 44.0943 42.6736 43.6578 42.6548 43.1779C42.6812 42.9502 42.7098 42.7305 42.7417 42.518M44.6322 38.2998C45.2608 37.6375 46.0905 36.9887 47.196 36.2821M44.6322 38.2998C43.4799 39.5139 43.0034 40.7735 42.7417 42.518M49.84 35.9043C49.1698 35.8891 48.4155 35.9485 47.5389 36.0665C47.4218 36.139 47.3075 36.2108 47.196 36.2821M52.1871 39.7827C52.3412 39.9073 52.4944 40.0598 52.6514 40.2467C53.1364 40.7208 53.1961 41.1897 52.946 41.8986M52.1871 39.7827C51.8035 39.4724 51.4142 39.3348 50.9456 39.2679M52.946 41.8986C52.9474 42.1016 52.9366 42.3159 52.9157 42.5587C52.6116 43.2993 52.3088 43.6874 51.7476 43.8951M52.946 41.8986L52.0048 42.4157M51.7476 43.8951C51.5215 43.9787 51.2534 44.0331 50.9263 44.0694C50.3959 44.0679 50.0157 44.0095 49.7019 43.8869M49.093 40.7503C49.5142 40.2662 50.1254 40.1599 50.6565 40.2387M50.9456 39.2679L51.4221 39.7796L50.6565 40.2387M50.6565 40.2387C51.2799 40.3312 51.793 40.6787 51.7593 40.9694C52.2018 40.9789 52.3179 42.0307 52.0048 42.4157M52.0048 42.4157L51.753 42.5541C51.8561 42.547 51.9397 42.4958 52.0048 42.4157ZM47.196 36.2821L49.1324 30.908L43.6127 25.9616M43.6127 25.9616C40.3732 26.7196 37.3982 28.4768 34.8374 31.3348M29.7232 40.6727C30.2672 38.6857 31.2258 36.6175 32.6375 34.2241C33.3304 33.159 34.0651 32.1968 34.8374 31.3348M29.7232 40.6727L37.1408 36.7939L42.7417 42.518M29.7232 40.6727C28.9254 43.5874 29.0197 46.3275 29.8847 49.6635M36.207 60.8475C34.3357 58.9768 32.8366 56.696 31.1239 53.5641C30.6133 52.161 30.1984 50.8731 29.8847 49.6635M81.7225 49.0128C82.0757 48.1549 82.4227 47.2231 82.7872 46.1778C83.4628 43.7726 83.847 41.8531 84.0178 39.9102M81.7225 49.0128L69.5524 49.8224L63.3146 43.2607M78.1964 20.7276C80.5433 24.9266 81.8071 27.9938 83.934 33.043C84.1399 35.7632 84.1989 37.8498 84.0178 39.9102M78.1964 20.7276C77.8888 20.1773 74.5478 16.1945 74.204 15.5953C72.5782 14.4924 71.869 13.4272 68.7032 10.9948C62.2095 6.51445 57.7009 4.38909 49.9697 3.52527M49.9697 3.52527C48.5869 3.37077 47.101 3.25662 45.4822 3.17658C32.601 3.41001 25.3388 5.88551 15.2775 15.7329M15.2775 15.7329C14.2977 16.6918 13.2914 17.7206 12.2508 18.8241C5.59288 26.1581 3.428 31.0418 1.63101 40.7687C1.18397 46.0591 1.04528 50.0241 1.45705 53.9735M15.2775 15.7329L29.2799 18.7602L34.8374 31.3348M1.45705 53.9735C1.79571 57.2216 2.50671 60.4592 3.72475 64.4149C8.18127 74.9529 11.321 80.5156 20.726 88.385C24.3656 91.7492 27.4552 93.9945 30.5449 95.6321M1.45705 53.9735L13.1626 47.2856L29.8847 49.6635M30.5449 95.6321C34.9027 97.9417 39.2606 99.0423 45.1613 100.368C61.5852 102.855 70.5851 102.998 85.3925 95.7749C86.1957 95.4867 86.9711 95.1958 87.7212 94.9009M87.7212 94.9009C99.3279 90.3367 104.849 84.8069 112.975 73.304C121.651 61.4666 125.115 53.2434 127.061 40.0826L99.2725 49.9414L84.0178 39.9102" stroke="white" stroke-width="1.5868"/>
</g>
<g filter="url(#filter0_d_1566_17)">
<g filter="url(#filter1_b_1566_17)">
<ellipse cx="108.354" cy="14.5" rx="15.2932" ry="14.4355" transform="rotate(-0.242103 108.354 14.5)" fill="#025772"/>
<ellipse cx="108.354" cy="14.5" rx="15.2932" ry="14.4355" transform="rotate(-0.242103 108.354 14.5)" fill="url(#paint0_radial_1566_17)"/>
<ellipse cx="108.354" cy="14.5" rx="15.2932" ry="14.4355" transform="rotate(-0.242103 108.354 14.5)" fill="url(#paint1_radial_1566_17)"/>
<ellipse cx="108.354" cy="14.5" rx="15.2932" ry="14.4355" transform="rotate(-0.242103 108.354 14.5)" fill="url(#paint2_radial_1566_17)"/>
<ellipse cx="108.354" cy="14.5" rx="15.2932" ry="14.4355" transform="rotate(-0.242103 108.354 14.5)" fill="url(#paint3_radial_1566_17)"/>
<ellipse cx="108.354" cy="14.5" rx="15.2932" ry="14.4355" transform="rotate(-0.242103 108.354 14.5)" fill="url(#paint4_radial_1566_17)" fill-opacity="0.1"/>
</g>
</g>
<defs>
<filter id="filter0_d_1566_17" x="91.8998" y="0.0644531" width="32.9085" height="31.1933" filterUnits="userSpaceOnUse" color-interpolation-filters="sRGB">
<feFlood flood-opacity="0" result="BackgroundImageFix"/>
<feColorMatrix in="SourceAlpha" type="matrix" values="0 0 0 0 0 0 0 0 0 0 0 0 0 0 0 0 0 0 127 0" result="hardAlpha"/>
<feOffset dy="1.16111"/>
<feGaussianBlur stdDeviation="0.580555"/>
<feComposite in2="hardAlpha" operator="out"/>
<feColorMatrix type="matrix" values="0 0 0 0 0 0 0 0 0 0 0 0 0 0 0 0 0 0 0.25 0"/>
<feBlend mode="normal" in2="BackgroundImageFix" result="effect1_dropShadow_1566_17"/>
<feBlend mode="normal" in="SourceGraphic" in2="effect1_dropShadow_1566_17" result="shape"/>
</filter>
<filter id="filter1_b_1566_17" x="78.2432" y="-14.7533" width="60.2218" height="58.5065" filterUnits="userSpaceOnUse" color-interpolation-filters="sRGB">
<feFlood flood-opacity="0" result="BackgroundImageFix"/>
<feGaussianBlur in="BackgroundImageFix" stdDeviation="7.40888"/>
<feComposite in2="SourceAlpha" operator="in" result="effect1_backgroundBlur_1566_17"/>
<feBlend mode="normal" in="SourceGraphic" in2="effect1_backgroundBlur_1566_17" result="shape"/>
</filter>
<radialGradient id="paint0_radial_1566_17" cx="0" cy="0" r="1" gradientUnits="userSpaceOnUse" gradientTransform="translate(109.614 12.2922) rotate(119.467) scale(17.5557 18.1081)">
<stop offset="0.121528" stop-color="#00A5D9" stop-opacity="0"/>
<stop offset="0.60855" stop-color="#024B7F" stop-opacity="0.628793"/>
<stop offset="0.801667" stop-color="#033D4A"/>
</radialGradient>
<radialGradient id="paint1_radial_1566_17" cx="0" cy="0" r="1" gradientUnits="userSpaceOnUse" gradientTransform="translate(113.212 0.913608) rotate(110.581) scale(28.6623 29.9563)">
<stop stop-color="#00CDFA"/>
<stop offset="0.930679" stop-color="#0055FA" stop-opacity="0"/>
</radialGradient>
<radialGradient id="paint2_radial_1566_17" cx="0" cy="0" r="1" gradientUnits="userSpaceOnUse" gradientTransform="translate(118.07 5.15934) rotate(110.345) scale(25.358 26.5107)">
<stop stop-color="#0DFFA8"/>
<stop offset="0.48266" stop-color="#FFD80D" stop-opacity="0"/>
</radialGradient>
<radialGradient id="paint3_radial_1566_17" cx="0" cy="0" r="1" gradientUnits="userSpaceOnUse" gradientTransform="translate(117.35 -3.67179) rotate(114.539) scale(33.7911 35.1257)">
<stop offset="0.0916666" stop-color="#0DC5FF"/>
<stop offset="0.441667" stop-color="#0DC5FF" stop-opacity="0.02"/>
</radialGradient>
<radialGradient id="paint4_radial_1566_17" cx="0" cy="0" r="1" gradientUnits="userSpaceOnUse" gradientTransform="translate(107.454 14.5) rotate(32.3654) scale(14.9108 14.568)">
<stop stop-color="#2890D9"/>
<stop offset="0.581241" stop-color="#035252"/>
</radialGradient>
</defs>
</svg>
